<svg width="184" height="24" viewBox="0 0 184 24" fill="none" xmlns="http://www.w3.org/2000/svg">
<path d="M8 22H16.76C16.91 22 17.06 21.93 17.15 21.81L19 19.5H10.24C10.09 19.5 9.94 19.57 9.85 19.69L8 22Z" fill="#AAA4EC"/>
<path d="M7 14V16.9C7 17.01 6.96 17.13 6.89 17.22L3 22.01H5.76C5.91 22.01 6.05 21.94 6.15 21.83L9.1 18.2C9.19 18.08 9.34 18.02 9.49 18.02H12.5C15.92 18.02 18.72 15.38 18.97 12.02H15L18.89 7.16C18.96 7.07 19 6.96 19 6.85V2C12.37 2 7 7.37 7 14V14Z" fill="#5548D9"/>
<path d="M40.602 8.244C40.266 7.788 39.828 7.458 39.288 7.254C38.748 7.038 38.22 6.93 37.704 6.93C37.044 6.93 36.444 7.05 35.904 7.29C35.364 7.53 34.896 7.86 34.5 8.28C34.116 8.7 33.816 9.192 33.6 9.756C33.396 10.32 33.294 10.932 33.294 11.592C33.294 12.288 33.396 12.924 33.6 13.5C33.804 14.076 34.092 14.574 34.464 14.994C34.848 15.402 35.304 15.72 35.832 15.948C36.36 16.176 36.954 16.29 37.614 16.29C38.298 16.29 38.904 16.158 39.432 15.894C39.96 15.618 40.386 15.258 40.71 14.814L42.528 16.092C41.964 16.8 41.274 17.352 40.458 17.748C39.642 18.132 38.688 18.324 37.596 18.324C36.6 18.324 35.682 18.162 34.842 17.838C34.014 17.502 33.3 17.04 32.7 16.452C32.1 15.852 31.632 15.144 31.296 14.328C30.96 13.5 30.792 12.588 30.792 11.592C30.792 10.572 30.966 9.654 31.314 8.838C31.674 8.01 32.16 7.308 32.772 6.732C33.396 6.156 34.128 5.712 34.968 5.4C35.808 5.088 36.72 4.932 37.704 4.932C38.112 4.932 38.538 4.974 38.982 5.058C39.426 5.13 39.852 5.25 40.26 5.418C40.668 5.574 41.052 5.772 41.412 6.012C41.772 6.252 42.078 6.54 42.33 6.876L40.602 8.244ZM43.1143 13.644C43.1143 12.96 43.2343 12.342 43.4743 11.79C43.7263 11.226 44.0623 10.746 44.4823 10.35C44.9023 9.954 45.4003 9.648 45.9763 9.432C46.5523 9.216 47.1643 9.108 47.8123 9.108C48.4603 9.108 49.0723 9.216 49.6483 9.432C50.2243 9.648 50.7223 9.954 51.1423 10.35C51.5623 10.746 51.8923 11.226 52.1323 11.79C52.3843 12.342 52.5103 12.96 52.5103 13.644C52.5103 14.328 52.3843 14.952 52.1323 15.516C51.8923 16.08 51.5623 16.566 51.1423 16.974C50.7223 17.37 50.2243 17.682 49.6483 17.91C49.0723 18.138 48.4603 18.252 47.8123 18.252C47.1643 18.252 46.5523 18.138 45.9763 17.91C45.4003 17.682 44.9023 17.37 44.4823 16.974C44.0623 16.566 43.7263 16.08 43.4743 15.516C43.2343 14.952 43.1143 14.328 43.1143 13.644ZM45.3103 13.644C45.3103 13.98 45.3583 14.316 45.4543 14.652C45.5623 14.988 45.7183 15.288 45.9223 15.552C46.1263 15.816 46.3843 16.032 46.6963 16.2C47.0083 16.368 47.3803 16.452 47.8123 16.452C48.2443 16.452 48.6163 16.368 48.9283 16.2C49.2403 16.032 49.4983 15.816 49.7023 15.552C49.9063 15.288 50.0563 14.988 50.1523 14.652C50.2603 14.316 50.3143 13.98 50.3143 13.644C50.3143 13.308 50.2603 12.978 50.1523 12.654C50.0563 12.318 49.9063 12.018 49.7023 11.754C49.4983 11.49 49.2403 11.28 48.9283 11.124C48.6163 10.956 48.2443 10.872 47.8123 10.872C47.3803 10.872 47.0083 10.956 46.6963 11.124C46.3843 11.28 46.1263 11.49 45.9223 11.754C45.7183 12.018 45.5623 12.318 45.4543 12.654C45.3583 12.978 45.3103 13.308 45.3103 13.644ZM54.6046 9.36H56.6566V10.746H56.6926C56.8846 10.314 57.2146 9.936 57.6826 9.612C58.1626 9.276 58.7266 9.108 59.3746 9.108C59.9386 9.108 60.4186 9.21 60.8146 9.414C61.2226 9.606 61.5526 9.864 61.8046 10.188C62.0686 10.512 62.2606 10.884 62.3806 11.304C62.5006 11.724 62.5606 12.156 62.5606 12.6V18H60.4006V13.212C60.4006 12.96 60.3826 12.696 60.3466 12.42C60.3106 12.144 60.2326 11.898 60.1126 11.682C59.9926 11.454 59.8246 11.268 59.6086 11.124C59.4046 10.98 59.1286 10.908 58.7806 10.908C58.4326 10.908 58.1326 10.98 57.8806 11.124C57.6286 11.256 57.4186 11.43 57.2506 11.646C57.0946 11.862 56.9746 12.114 56.8906 12.402C56.8066 12.678 56.7646 12.96 56.7646 13.248V18H54.6046V9.36ZM63.8392 11.088V9.36H65.3512V6.858H67.4752V9.36H69.6352V11.088H67.4752V15.102C67.4752 15.486 67.5412 15.804 67.6732 16.056C67.8172 16.308 68.1292 16.434 68.6092 16.434C68.7532 16.434 68.9092 16.422 69.0772 16.398C69.2452 16.362 69.3952 16.314 69.5272 16.254L69.5992 17.946C69.4072 18.018 69.1792 18.072 68.9152 18.108C68.6512 18.156 68.3992 18.18 68.1592 18.18C67.5832 18.18 67.1152 18.102 66.7552 17.946C66.3952 17.778 66.1072 17.556 65.8912 17.28C65.6872 16.992 65.5432 16.668 65.4592 16.308C65.3872 15.936 65.3512 15.54 65.3512 15.12V11.088H63.8392ZM77.2823 12.816C77.2823 12.54 77.2403 12.276 77.1563 12.024C77.0843 11.772 76.9643 11.55 76.7963 11.358C76.6283 11.166 76.4123 11.016 76.1483 10.908C75.8963 10.788 75.5963 10.728 75.2483 10.728C74.6003 10.728 74.0483 10.926 73.5923 11.322C73.1483 11.706 72.9023 12.204 72.8543 12.816H77.2823ZM79.4423 13.788C79.4423 13.884 79.4423 13.98 79.4423 14.076C79.4423 14.172 79.4363 14.268 79.4243 14.364H72.8543C72.8783 14.676 72.9563 14.964 73.0883 15.228C73.2323 15.48 73.4183 15.702 73.6463 15.894C73.8743 16.074 74.1323 16.218 74.4203 16.326C74.7083 16.434 75.0083 16.488 75.3203 16.488C75.8603 16.488 76.3163 16.392 76.6883 16.2C77.0603 15.996 77.3663 15.72 77.6063 15.372L79.0463 16.524C78.1943 17.676 76.9583 18.252 75.3383 18.252C74.6663 18.252 74.0483 18.15 73.4843 17.946C72.9203 17.73 72.4283 17.43 72.0083 17.046C71.6003 16.662 71.2763 16.194 71.0363 15.642C70.8083 15.078 70.6943 14.442 70.6943 13.734C70.6943 13.038 70.8083 12.408 71.0363 11.844C71.2763 11.268 71.6003 10.782 72.0083 10.386C72.4163 9.978 72.8963 9.666 73.4483 9.45C74.0123 9.222 74.6183 9.108 75.2663 9.108C75.8663 9.108 76.4183 9.21 76.9223 9.414C77.4383 9.606 77.8823 9.9 78.2543 10.296C78.6263 10.68 78.9143 11.166 79.1183 11.754C79.3343 12.33 79.4423 13.008 79.4423 13.788ZM81.5343 9.36H83.5863V10.746H83.6223C83.8143 10.314 84.1443 9.936 84.6123 9.612C85.0923 9.276 85.6563 9.108 86.3043 9.108C86.8683 9.108 87.3483 9.21 87.7443 9.414C88.1523 9.606 88.4823 9.864 88.7343 10.188C88.9983 10.512 89.1903 10.884 89.3103 11.304C89.4303 11.724 89.4903 12.156 89.4903 12.6V18H87.3303V13.212C87.3303 12.96 87.3123 12.696 87.2763 12.42C87.2403 12.144 87.1623 11.898 87.0423 11.682C86.9223 11.454 86.7543 11.268 86.5383 11.124C86.3343 10.98 86.0583 10.908 85.7103 10.908C85.3623 10.908 85.0623 10.98 84.8103 11.124C84.5583 11.256 84.3483 11.43 84.1803 11.646C84.0243 11.862 83.9043 12.114 83.8203 12.402C83.7363 12.678 83.6943 12.96 83.6943 13.248V18H81.5343V9.36ZM90.7688 11.088V9.36H92.2808V6.858H94.4048V9.36H96.5648V11.088H94.4048V15.102C94.4048 15.486 94.4708 15.804 94.6028 16.056C94.7468 16.308 95.0588 16.434 95.5388 16.434C95.6828 16.434 95.8388 16.422 96.0068 16.398C96.1748 16.362 96.3248 16.314 96.4568 16.254L96.5288 17.946C96.3368 18.018 96.1088 18.072 95.8448 18.108C95.5808 18.156 95.3288 18.18 95.0888 18.18C94.5128 18.18 94.0448 18.102 93.6848 17.946C93.3248 17.778 93.0368 17.556 92.8208 17.28C92.6168 16.992 92.4728 16.668 92.3888 16.308C92.3168 15.936 92.2808 15.54 92.2808 15.12V11.088H90.7688ZM102.736 5.256H105.004V10.404H110.962V5.256H113.23V18H110.962V12.348H105.004V18H102.736V5.256ZM123.819 18H121.767V16.614H121.731C121.539 17.046 121.203 17.43 120.723 17.766C120.255 18.09 119.697 18.252 119.049 18.252C118.485 18.252 117.999 18.156 117.591 17.964C117.195 17.76 116.865 17.496 116.601 17.172C116.349 16.848 116.163 16.476 116.043 16.056C115.923 15.636 115.863 15.204 115.863 14.76V9.36H118.023V14.148C118.023 14.4 118.041 14.664 118.077 14.94C118.113 15.216 118.191 15.468 118.311 15.696C118.431 15.912 118.593 16.092 118.797 16.236C119.013 16.38 119.295 16.452 119.643 16.452C119.979 16.452 120.273 16.386 120.525 16.254C120.789 16.11 120.999 15.93 121.155 15.714C121.323 15.498 121.449 15.252 121.533 14.976C121.617 14.688 121.659 14.4 121.659 14.112V9.36H123.819V18ZM128.607 4.392V10.458H128.661C128.769 10.314 128.907 10.164 129.075 10.008C129.243 9.852 129.441 9.708 129.669 9.576C129.909 9.444 130.185 9.336 130.497 9.252C130.809 9.156 131.163 9.108 131.559 9.108C132.171 9.108 132.735 9.228 133.251 9.468C133.767 9.696 134.211 10.014 134.583 10.422C134.955 10.83 135.243 11.31 135.447 11.862C135.651 12.414 135.753 13.008 135.753 13.644C135.753 14.28 135.651 14.88 135.447 15.444C135.255 15.996 134.973 16.482 134.601 16.902C134.241 17.31 133.797 17.64 133.269 17.892C132.753 18.132 132.165 18.252 131.505 18.252C130.893 18.252 130.317 18.12 129.777 17.856C129.249 17.592 128.835 17.208 128.535 16.704H128.499V18H126.447V4.392H128.607ZM133.557 13.644C133.557 13.308 133.503 12.978 133.395 12.654C133.299 12.318 133.149 12.018 132.945 11.754C132.741 11.49 132.483 11.28 132.171 11.124C131.859 10.956 131.493 10.872 131.073 10.872C130.677 10.872 130.323 10.956 130.011 11.124C129.699 11.292 129.429 11.508 129.201 11.772C128.985 12.036 128.817 12.336 128.697 12.672C128.589 13.008 128.535 13.344 128.535 13.68C128.535 14.016 128.589 14.352 128.697 14.688C128.817 15.012 128.985 15.306 129.201 15.57C129.429 15.834 129.699 16.05 130.011 16.218C130.323 16.374 130.677 16.452 131.073 16.452C131.493 16.452 131.859 16.368 132.171 16.2C132.483 16.032 132.741 15.816 132.945 15.552C133.149 15.288 133.299 14.988 133.395 14.652C133.503 14.316 133.557 13.98 133.557 13.644ZM141.833 11.592C141.833 10.572 142.001 9.654 142.337 8.838C142.685 8.01 143.159 7.308 143.759 6.732C144.371 6.156 145.091 5.712 145.919 5.4C146.759 5.088 147.671 4.932 148.655 4.932C149.651 4.932 150.569 5.088 151.409 5.4C152.249 5.712 152.975 6.156 153.587 6.732C154.199 7.308 154.673 8.01 155.009 8.838C155.357 9.654 155.531 10.572 155.531 11.592C155.531 12.588 155.357 13.5 155.009 14.328C154.673 15.144 154.199 15.852 153.587 16.452C152.975 17.04 152.249 17.502 151.409 17.838C150.569 18.162 149.651 18.324 148.655 18.324C147.671 18.324 146.759 18.162 145.919 17.838C145.091 17.502 144.371 17.04 143.759 16.452C143.159 15.852 142.685 15.144 142.337 14.328C142.001 13.5 141.833 12.588 141.833 11.592ZM144.299 11.592C144.299 12.276 144.401 12.906 144.605 13.482C144.821 14.046 145.121 14.538 145.505 14.958C145.901 15.378 146.363 15.708 146.891 15.948C147.431 16.176 148.025 16.29 148.673 16.29C149.321 16.29 149.915 16.176 150.455 15.948C150.995 15.708 151.457 15.378 151.841 14.958C152.237 14.538 152.537 14.046 152.741 13.482C152.957 12.906 153.065 12.276 153.065 11.592C153.065 10.932 152.957 10.32 152.741 9.756C152.537 9.192 152.243 8.7 151.859 8.28C151.475 7.86 151.013 7.53 150.473 7.29C149.933 7.05 149.333 6.93 148.673 6.93C148.013 6.93 147.413 7.05 146.873 7.29C146.345 7.53 145.889 7.86 145.505 8.28C145.121 8.7 144.821 9.192 144.605 9.756C144.401 10.32 144.299 10.932 144.299 11.592ZM157.72 5.256H160.726L166.648 14.796H166.684V5.256H168.952V18H166.072L160.024 8.154H159.988V18H157.72V5.256ZM171.765 5.256H180.207V7.236H174.033V10.476H179.883V12.384H174.033V15.984H180.531V18H171.765V5.256Z" fill="black"/>
</svg>